# xmcd
#
# Track frame offsets:
#	150
#	18120
#	37612
#	48902
#	68510
#	81137
#	96117
#	116647
#	135715
#	154095
#	183232
#	195095
#	219330
#	234967
#	254602
#	272367
#	285267
#	297525
#	318720
#
# Disc length: 4457
#
# Revision: 2
# Processed by: cddbd v1.5.1PL0 Copyright (c) Steve Scherf et al.
# Submitted via: CDex 1.51
# Normalized: r1:DSETVAR1,TDELIM( - )
#
DISCID=f6116713
DTITLE=Various Artist - Boot Scooti'n Boogie
DYEAR=1997
DGENRE=Country
TTITLE0=Alan Jackson - Chattahoochee
TTITLE1=Brooks and Dunn - Mamma Don't Get Dressed Up
TTITLE2=BR5-49 - Cherokee Boogie
TTITLE3=Blackhawk - Big Guitar
TTITLE4=Michelle Wright - Laid Back Stone Cold
TTITLE5=Lee Roy Parnell - We All Get Luck Sometimes
TTITLE6=Pam Tillis - Betty's Got a Bass Boat
TTITLE7=Diamond Rio - It's All in Your Head
TTITLE8=BR5-49 - Chains of This Town
TTITLE9=Brooks and Dunn - Bootscootin' Boogie
TTITLE10=Alan Jackson - Little Bitty
TTITLE11=Radney Foster - Hammer and Nails
TTITLE12=Lee Roy Parnell - The House is Rockin
TTITLE13=Pam Tillis - Cleopatra, Queen of Denial
TTITLE14=The Tractors - My Baby Likes to Rock it
TTITLE15=Brett James - Wake up and Smell The Whiskey
TTITLE16=Tammy Graham - Houdini
TTITLE17=Brooks and Dunn - Rock My World (Little Country Girl)
TTITLE18=Michelle Wright - You Owe Me
EXTD=YEAR: 1997
EXTT0=
EXTT1=
EXTT2=
EXTT3=
EXTT4=
EXTT5=
EXTT6=
EXTT7=
EXTT8=
EXTT9=
EXTT10=
EXTT11=
EXTT12=
EXTT13=
EXTT14=
EXTT15=
EXTT16=
EXTT17=
EXTT18=
PLAYORDER=
